<?xml version="1.0" standalone="no"?>
<!DOCTYPE svg PUBLIC "-//W3C//DTD SVG 1.1//EN" "http://www.w3.org/Graphics/SVG/1.1/DTD/svg11.dtd">
<svg width="83.96711199999996mm" height="125.36364900000001mm"
 viewBox="0 0 83.96711199999996 125.36364900000001"
 xmlns="http://www.w3.org/2000/svg" version="1.1"
 xmlns:xlink="http://www.w3.org/1999/xlink">
<desc>Output from Flights of Ideas SVG Sketchup Plugin</desc>

  <path id="face0-cut"
 style="fill:none;stroke:#0000FF;stroke-width:1;stroke-miterlimit:4;stroke-dasharray:none;stroke-linejoin:round;stroke-linecap:round"
        d="M 10.0,59.50000000000003 L 11.500000000000007,59.50000000000003 L 11.500000000000007,65.50000000000006 L 10.0,65.50000000000003 L 10.0,71.50000000000003 L 11.500000000000007,71.50000000000003 L 11.5,77.50000000000003 L 10.0,77.50000000000003 L 10.0,83.50000000000003 L 11.500000000000007,83.50000000000003 L 11.500000000000007,89.50000000000003 L 10.0,89.50000000000003 L 10.0,95.50000000000003 L 11.500000000000007,95.50000000000003 L 11.500000000000007,101.50000000000003 L 10.0,101.50000000000003 L 10.0,107.50000000000003 L 11.500000000000007,107.50000000000003 L 11.500000000000007,113.86364899999998 L 10.0,113.50000000000003 L 10.0,115.36364899999998 L 14.059582708987207,115.36364899999998 L 13.97745020772448,113.86364899999998 L 14.5,113.86364899999998 L 16.977450207724488,113.86364899999998 L 16.9774502077245,115.36364899999998 L 19.977450207724495,115.36364899999998 L 19.97745020772448,113.86364899999998 L 22.977450207724495,113.86364899999998 L 22.977450207724488,115.36364899999998 L 25.977450207724495,115.36364900000001 L 25.977450207724495,113.86364899999998 L 28.9774502077245,113.86364899999998 L 28.9774502077245,115.36364899999998 L 31.977450207724495,115.36364899999998 L 31.977450207724495,113.86364899999998 L 34.97745020772449,113.86364899999998 L 34.977450207724495,115.36364899999998 L 37.97745020772449,115.36364900000001 L 37.97745020772449,113.86364899999998 L 40.977450207724495,113.86364899999998 L 40.9774502077245,115.36364899999998 L 43.977450207724495,115.36364899999998 L 43.977450207724495,113.86364899999998 L 46.97745020772449,113.86364899999998 L 46.97745020772447,115.36364899999998 L 49.97745020772449,115.36364899999998 L 49.97745020772447,113.86364899999998 L 52.97745020772447,113.86364899999998 L 52.97745020772447,115.36364899999998 L 55.977450207724466,115.36364899999998 L 55.977450207724466,113.86364899999998 L 58.97745020772446,113.86364900000001 L 58.97745020772446,115.36364899999998 L 61.97745020772445,115.36364899999998 L 61.97745020772445,113.86364899999998 L 64.97745020772444,113.86364899999998 L 64.97745020772444,115.36364899999998 L 67.97745020772444,115.36364899999998 L 67.97745020772444,113.86364899999998 L 70.97745020772443,113.86364899999998 L 70.97745020772444,115.36364899999998 L 72.46711199999997,115.36364899999998 L 72.46711199999997,113.86364899999998 L 72.46711199999996,107.86364899999998 L 73.96711199999996,107.86364899999998 L 73.96711199999996,101.86364900000001 L 72.46711199999996,101.86364900000001 L 72.46711199999996,95.86364900000001 L 73.96711199999996,95.86364900000001 L 73.96711199999994,89.86364900000001 L 72.46711199999996,89.86364900000001 L 72.46711199999997,83.86364899999998 L 73.96711199999994,83.86364900000004 L 73.96711199999996,77.86364899999998 L 72.46711199999996,77.86364899999998 L 72.46711199999996,71.86364900000001 L 73.96711199999996,71.86364900000001 L 73.96711199999996,65.86364900000002 L 72.46711199999996,65.86364899999992 L 72.46711199999996,63.43182449999992 L 72.46711199999997,59.86364899999904 L 73.96711199999996,59.863649000000166 L 73.96711199999996,53.86364899999988 L 72.46711199999997,53.86364900000011 L 72.46711199999997,47.86364900000004 L 73.96711199999996,47.863649000000024 L 73.96711199999996,41.86364899999998 L 72.46711199999996,41.86364900000001 L 72.46711199999996,35.863648999999995 L 73.96711199999996,35.863648999999995 L 73.96711199999996,29.863648999999988 L 72.46711199999996,29.86364900000001 L 72.46711199999997,23.86364900000001 L 73.96711199999996,23.86364899999999 L 73.96711199999996,17.86364899999999 L 72.46711199999996,17.863648999999985 L 72.46711199999996,11.500000000000018 L 69.46711199999996,11.500000000000004 L 69.46711199999996,10.000000000000014 L 66.46711199999996,10.0 L 66.46711199999999,11.500000000000025 L 63.46711199999997,11.500000000000007 L 63.46711199999997,10.00000000000001 L 60.46711199999999,10.00000000000001 L 60.467111999999986,11.500000000000014 L 57.467112,11.500000000000014 L 57.46711199999999,10.00000000000001 L 54.467112,10.000000000000021 L 54.467112,11.500000000000014 L 51.467112,11.500000000000014 L 51.467112,10.00000000000001 L 48.46711200000001,10.000000000000021 L 48.467112000000014,11.500000000000018 L 45.46711200000001,11.500000000000007 L 45.46711200000002,10.000000000000021 L 42.46711200000002,10.000000000000014 L 42.46711200000003,11.500000000000014 L 41.98355599999998,11.500000000000036 L 39.46711200000003,11.500000000000014 L 39.46711200000003,10.000000000000014 L 36.46711200000003,10.000000000000014 L 36.46711200000003,11.500000000000018 L 33.46711200000002,11.500000000000018 L 33.46711200000002,10.000000000000014 L 30.46711200000003,10.000000000000014 L 30.46711200000002,11.500000000000014 L 27.46711200000003,11.500000000000014 L 27.46711200000003,10.000000000000028 L 24.467112000000036,10.000000000000014 L 24.467112000000036,11.500000000000018 L 21.46711200000003,11.500000000000014 L 21.46711200000003,10.000000000000014 L 18.46711200000002,10.000000000000021 L 18.46711200000002,11.500000000000014 L 15.467112000000029,11.500000000000018 L 15.467112000000029,10.000000000000014 L 11.500000000000007,10.000000000000014 L 11.500000000000007,11.500000000000014 L 11.500000000000007,17.500000000000025 L 10.0,17.500000000000025 L 10.0,23.500000000000025 L 11.500000000000007,23.500000000000043 L 11.500000000000007,29.500000000000025 L 10.0,29.500000000000025 L 10.0,35.50000000000003 L 11.500000000000007,35.50000000000003 L 11.500000000000007,41.50000000000003 L 10.0,41.50000000000003 L 10.0,47.50000000000003 L 11.5,47.500000000000036 L 11.500000000000007,53.50000000000005 L 10.0,53.50000000000003 L 10.0,59.50000000000003 M 43.98355599999998,20.000000000000025 L 57.225333999999975,20.000000000000032 L 57.22533399999997,22.000000000000007 L 43.98355599999998,22.000000000000014 L 43.98355599999998,20.000000000000025 M 43.98355599999998,27.000000000000007 L 57.225333999999975,27.000000000000018 L 57.225333999999975,29.000000000000014 L 43.98355599999998,29.000000000000007 L 43.98355599999998,27.000000000000007 M 43.98355599999998,34.00000000000002 L 57.225333999999975,33.99999999999999 L 57.225333999999975,36.00000000000003 L 43.98355599999998,36.000000000000014 L 43.98355599999998,34.00000000000002 M 43.983555999999986,41.00000000000002 L 57.225333999999975,41.00000000000003 L 57.22533399999997,43.0 L 43.98355599999998,43.000000000000014 L 43.983555999999986,41.00000000000002 M 26.74177799999999,43.000000000000014 L 26.741777999999996,41.000000000000014 L 39.983555999999986,41.000000000000014 L 39.983555999999986,43.000000000000014 L 26.74177799999999,43.000000000000014 M 26.741777999999996,36.00000000000001 L 26.741777999999996,34.00000000000002 L 39.98355599999998,34.000000000000014 L 39.983555999999986,36.000000000000014 L 26.741777999999996,36.00000000000001 M 39.983555999999986,29.000000000000025 L 26.741777999999996,29.00000000000002 L 26.741777999999996,27.000000000000018 L 39.98355599999999,27.000000000000025 L 39.983555999999986,29.000000000000025 M 26.741777999999996,22.00000000000002 L 26.741777999999996,20.00000000000002 L 39.98355599999999,20.000000000000025 L 39.983555999999986,22.00000000000001 L 26.741777999999996,22.00000000000002 "
  />
</svg>
