<?xml version="1.0" standalone="no"?>
<!DOCTYPE svg PUBLIC "-//W3C//DTD SVG 1.1//EN" "http://www.w3.org/Graphics/SVG/1.1/DTD/svg11.dtd">
<svg width="83.96711199999999mm" height="240.72729800000042mm"
 viewBox="0 0 83.96711199999999 240.72729800000042"
 xmlns="http://www.w3.org/2000/svg" version="1.1"
 xmlns:xlink="http://www.w3.org/1999/xlink">
<desc>Output from Flights of Ideas SVG Sketchup Plugin</desc>

  <path id="face0-cut"
 style="fill:none;stroke:#0000FF;stroke-width:1;stroke-miterlimit:4;stroke-dasharray:none;stroke-linejoin:round;stroke-linecap:round"
        d="M 14.5,11.500000000000213 L 10.000000000000002,11.500000000000213 L 10.000000000000004,15.411225920573074 L 11.5,15.411225920573074 L 11.500000000000004,21.41122592057307 L 10.000000000000004,21.41122592057307 L 10.000000000000004,27.411225920573077 L 11.500000000000004,27.411225920573077 L 11.5,33.411225920573074 L 10.000000000000004,33.411225920573074 L 10.0,39.411225920573074 L 11.5,39.411225920573074 L 11.500000000000007,45.41122592057306 L 10.000000000000004,45.411225920573074 L 10.000000000000005,51.411225920573074 L 11.500000000000002,51.411225920573074 L 11.500000000000009,57.41122592057309 L 10.0,57.411225920573074 L 10.000000000000005,63.41122592057309 L 11.500000000000007,63.411225920573074 L 11.500000000000007,69.41122592057307 L 10.000000000000007,69.41122592057307 L 10.000000000000009,75.41122592057307 L 11.500000000000002,75.41122592057307 L 11.500000000000004,81.41122592057309 L 10.000000000000007,81.41122592057307 L 10.00000000000001,94.49002716483044 L 11.500000000000014,94.49002716483044 L 11.5,101.8636490000002 L 10.0,101.8636490000002 L 10.0,107.86364900000018 L 11.500000000000009,107.86364900000018 L 11.500000000000009,113.86364900000021 L 12.46711200000004,113.86364900000021 L 12.467112000000036,115.36364900000021 L 15.467112000000025,115.36364900000021 L 15.467112000000022,113.86364900000021 L 18.46711200000002,113.86364900000021 L 18.467112000000036,115.36364900000021 L 21.467112000000032,115.36364900000021 L 21.467112000000032,113.86364900000021 L 24.46711200000003,113.86364900000021 L 24.46711200000002,115.36364900000021 L 27.467112000000025,115.36364900000021 L 27.46711200000003,113.86364900000018 L 30.467112000000036,113.86364900000021 L 30.467112000000032,115.36364900000018 L 33.46711200000003,115.36364900000021 L 33.46711200000002,113.86364900000021 L 36.46711200000003,113.86364900000021 L 36.467112000000014,115.36364900000021 L 39.46711200000004,115.36364900000021 L 39.46711200000004,113.86364900000021 L 42.46711200000003,113.86364900000021 L 42.467112000000014,115.36364900000018 L 45.467112000000014,115.36364900000021 L 45.467112000000014,113.86364900000018 L 48.46711200000002,113.86364900000021 L 48.467112000000014,115.36364900000021 L 51.467112000000014,115.36364900000021 L 51.46711199999999,113.86364900000021 L 54.467112000000014,113.86364900000021 L 54.46711200000002,115.36364900000021 L 57.46711200000001,115.36364900000021 L 57.46711199999999,113.86364900000021 L 60.467111999999986,113.86364900000021 L 60.467112,115.36364900000021 L 63.46711199999998,115.36364900000021 L 63.46711199999998,113.86364900000018 L 66.46711199999997,113.86364900000021 L 66.46711199999999,115.36364900000018 L 69.46711199999999,115.36364900000018 L 69.46711199999997,113.86364900000021 L 72.46711199999997,113.86364900000021 L 72.46711199999999,112.36364900000021 L 72.46711199999999,107.50000000000024 L 73.96711199999996,107.50000000000023 L 73.96711199999999,101.50000000000021 L 72.46711199999999,101.50000000000023 L 72.46711199999997,95.50000000000021 L 73.96711199999996,95.50000000000021 L 73.96711199999996,89.50000000000021 L 72.46711199999999,89.50000000000021 L 72.46711199999999,83.5000000000002 L 73.96711199999999,83.50000000000021 L 73.96711199999999,77.50000000000021 L 72.46711199999997,77.50000000000021 L 72.46711199999999,71.50000000000021 L 73.96711199999999,71.50000000000021 L 73.96711199999996,65.50000000000024 L 72.46711199999999,65.50000000000021 L 72.46711199999997,59.50000000000021 L 73.96711199999996,59.50000000000021 L 73.96711199999996,53.50000000000021 L 72.46711199999997,53.50000000000021 L 72.46711199999997,47.50000000000024 L 73.96711199999996,47.50000000000021 L 73.96711199999996,41.50000000000021 L 72.46711199999997,41.50000000000023 L 72.46711199999997,35.50000000000023 L 73.96711199999996,35.50000000000021 L 73.96711199999996,29.500000000000217 L 72.46711199999997,29.500000000000217 L 72.46711199999997,23.500000000000217 L 73.96711199999996,23.500000000000238 L 73.96711199999996,17.500000000000146 L 72.46711199999997,17.50000000000028 L 72.46711199999997,11.500000000000213 L 71.23355599999996,11.500000000000213 L 71.23355599999996,10.000000000000231 L 68.49999999999994,10.0 L 68.49999999999994,11.500000000000213 L 65.49999999999996,11.500000000000213 L 65.49999999999996,10.000000000000227 L 62.49999999999996,10.00000000000021 L 62.49999999999996,11.500000000000213 L 59.499999999999964,11.500000000000213 L 59.499999999999964,10.000000000000352 L 56.49999999999997,10.000000000000238 L 56.49999999999997,11.500000000000213 L 53.49999999999997,11.500000000000213 L 53.49999999999997,10.000000000000217 L 50.49999999999997,10.000000000000075 L 50.49999999999998,11.500000000000213 L 47.499999999999986,11.500000000000213 L 47.499999999999986,10.000000000000217 L 44.49999999999999,10.000000000000199 L 44.49999999999999,11.500000000000213 L 41.49999999999999,11.500000000000213 L 41.49999999999999,10.000000000000192 L 38.5,10.000000000000203 L 38.5,11.500000000000213 L 35.5,11.500000000000213 L 35.5,10.00000000000021 L 32.5,10.000000000000199 L 32.5,11.500000000000213 L 29.5,11.500000000000213 L 29.5,10.000000000000217 L 26.5,10.000000000000231 L 26.5,11.500000000000213 L 23.5,11.500000000000213 L 23.5,10.00000000000022 L 20.5,10.00000000000021 L 20.5,11.500000000000213 L 17.499999999999993,11.500000000000213 L 17.5,10.000000000000217 L 14.5,10.000000000000217 L 14.5,11.500000000000213 "
  />
  <path id="face1-cut"
 style="fill:none;stroke:#0000FF;stroke-width:1;stroke-miterlimit:4;stroke-dasharray:none;stroke-linejoin:round;stroke-linecap:round"
        d="M 10.0,228.8636490000002 L 10.0,230.7272980000002 L 14.05958270898721,230.7272980000002 L 13.977450207724488,229.2272980000002 L 14.499999999999998,229.2272980000002 L 16.977450207724488,229.22729800000016 L 16.977450207724488,230.7272980000002 L 19.977450207724488,230.7272980000002 L 19.977450207724488,229.22729800000013 L 22.977450207724488,229.2272980000002 L 22.977450207724488,230.7272980000002 L 25.977450207724488,230.72729800000016 L 25.977450207724488,229.2272980000002 L 28.977450207724488,229.22729800000022 L 28.977450207724488,230.72729800000016 L 31.977450207724488,230.7272980000002 L 31.97745020772449,229.22729799999993 L 34.97745020772449,229.22729800000036 L 34.97745020772449,230.7272980000002 L 37.97745020772449,230.7272980000002 L 37.97745020772449,229.22729800000025 L 40.977450207724495,229.22729800000036 L 40.977450207724495,230.7272980000002 L 43.97745020772449,230.72729800000025 L 43.97745020772449,229.22729800000036 L 46.97745020772449,229.22729799999982 L 46.97745020772448,230.7272980000002 L 49.97745020772448,230.72729800000025 L 49.97745020772448,229.22729799999954 L 52.97745020772448,229.22729799999996 L 52.97745020772447,230.7272980000003 L 55.97745020772447,230.72729800000008 L 55.97745020772447,229.22729799999937 L 58.977450207724466,229.2272979999996 L 58.977450207724466,230.72729800000013 L 61.97745020772445,230.72729800000005 L 61.97745020772445,229.22729800000025 L 64.97745020772444,229.22729800000042 L 64.97745020772444,230.72729800000002 L 67.97745020772444,230.7272980000003 L 67.97745020772444,229.2272980000003 L 70.97745020772444,229.2272980000001 L 70.97745020772444,230.72729800000042 L 72.46711199999996,230.72729800000013 L 72.46711199999997,229.22729799999922 L 72.46711199999997,223.2272980000003 L 73.96711199999996,223.22729800000008 L 73.96711199999996,217.22729800000022 L 72.46711199999997,217.22729800000025 L 72.46711199999996,211.2272980000002 L 73.96711199999996,211.22729800000016 L 73.96711199999996,205.2272980000002 L 72.46711199999996,205.2272980000002 L 72.46711199999996,199.2272980000002 L 73.96711199999996,199.2272980000002 L 73.96711199999996,193.2272980000002 L 72.46711199999997,193.2272980000002 L 72.46711199999996,187.2272980000002 L 73.96711199999996,187.2272980000002 L 73.96711199999996,181.22729800000016 L 72.46711199999996,181.2272980000002 L 72.46711199999996,175.2272980000002 L 73.96711199999996,175.2272980000002 L 73.96711199999996,169.22729800000016 L 72.46711199999997,169.2272980000002 L 72.46711199999996,163.2272980000002 L 73.96711199999996,163.2272980000002 L 73.96711199999997,157.2272980000002 L 72.46711199999996,157.2272980000002 L 72.46711199999997,151.2272980000002 L 73.96711199999996,151.2272980000002 L 73.96711199999996,145.2272980000002 L 72.46711199999997,145.2272980000002 L 72.46711199999996,139.2272980000002 L 73.96711199999997,139.2272980000002 L 73.96711199999997,133.2272980000002 L 72.46711199999996,133.2272980000002 L 72.46711199999996,126.86364900000021 L 69.46711199999996,126.86364900000021 L 69.46711199999996,125.36364900000021 L 66.46711199999996,125.36364900000021 L 66.46711199999996,126.86364900000021 L 63.46711199999998,126.86364900000021 L 63.46711199999998,125.36364900000021 L 60.46711199999999,125.36364900000021 L 60.467111999999986,126.86364900000021 L 57.467111999999986,126.86364900000021 L 57.46711199999999,125.36364900000021 L 54.46711200000002,125.36364900000022 L 54.467112,126.86364900000021 L 51.467112000000014,126.86364900000021 L 51.467112000000014,125.36364900000021 L 48.46711200000003,125.36364900000021 L 48.46711200000001,126.86364900000021 L 45.467112000000014,126.86364900000021 L 45.46711200000002,125.36364900000022 L 42.467112000000014,125.36364900000021 L 42.467112000000014,126.86364900000021 L 39.46711200000003,126.86364900000021 L 39.46711200000003,125.36364900000021 L 36.46711200000003,125.36364900000021 L 36.46711200000004,126.86364900000021 L 33.467112000000036,126.86364900000022 L 33.46711200000004,125.36364900000021 L 30.467112000000032,125.36364900000022 L 30.467112000000032,126.86364900000022 L 27.46711200000004,126.86364900000021 L 27.467112000000025,125.36364900000021 L 24.467112000000036,125.36364900000021 L 24.467112000000036,126.86364900000021 L 21.46711200000003,126.86364900000021 L 21.467112000000043,125.36364900000021 L 18.467112000000043,125.36364900000021 L 18.46711200000002,126.86364900000021 L 15.467112000000022,126.86364900000022 L 15.467112000000034,125.36364900000022 L 11.499999999999998,125.36364900000021 L 11.500000000000007,126.86364900000022 L 11.500000000000004,132.8636490000002 L 10.000000000000007,132.8636490000002 L 10.000000000000007,138.8636490000002 L 11.50000000000001,138.86364900000024 L 11.500000000000014,144.8636490000002 L 10.000000000000007,144.8636490000002 L 10.000000000000005,150.8636490000002 L 11.500000000000014,150.8636490000002 L 11.500000000000014,156.8636490000002 L 10.000000000000005,156.8636490000002 L 10.000000000000005,162.8636490000002 L 11.500000000000004,162.86364900000024 L 11.500000000000014,168.86364900000024 L 10.000000000000005,168.8636490000002 L 10.000000000000004,174.8636490000002 L 11.50000000000001,174.86364900000024 L 11.500000000000007,180.86364900000024 L 10.000000000000004,180.8636490000002 L 10.000000000000004,186.8636490000002 L 11.500000000000005,186.8636490000002 L 11.50000000000001,192.86364900000024 L 10.000000000000004,192.8636490000002 L 10.000000000000002,198.8636490000002 L 11.500000000000007,198.8636490000002 L 11.500000000000007,204.8636490000002 L 10.000000000000002,204.8636490000002 L 10.000000000000002,210.8636490000002 L 11.500000000000007,210.8636490000002 L 11.500000000000005,216.8636490000002 L 10.000000000000002,216.8636490000002 L 10.0,222.8636490000002 L 11.500000000000004,222.8636490000002 L 11.5,229.2272980000002 L 10.0,228.8636490000002 "
  />
</svg>
