<?xml version="1.0" standalone="no"?>
<!DOCTYPE svg PUBLIC "-//W3C//DTD SVG 1.1//EN" "http://www.w3.org/Graphics/SVG/1.1/DTD/svg11.dtd">
<svg width="47.00574200000001mm" height="125.36364899999998mm"
 viewBox="0 0 47.00574200000001 125.36364899999998"
 xmlns="http://www.w3.org/2000/svg" version="1.1"
 xmlns:xlink="http://www.w3.org/1999/xlink">
<desc>Output from Flights of Ideas SVG Sketchup Plugin</desc>

  <path id="face0-cut"
 style="fill:none;stroke:#0000FF;stroke-width:1;stroke-miterlimit:4;stroke-dasharray:none;stroke-linejoin:round;stroke-linecap:round"
        d="M 11.5,101.5 L 11.5,107.5 L 10.000000000000014,107.5 L 10.000000000000014,113.86364899999998 L 14.005742000000012,113.86364899999998 L 14.005742000000012,115.36364899999997 L 17.005741999999998,115.36364899999997 L 17.005741999999998,113.86364899999998 L 20.005742000000012,113.86364899999998 L 20.005742000000012,115.36364899999997 L 23.005741999999998,115.36364899999997 L 23.005741999999998,113.86364899999998 L 26.005742000000012,113.86364899999998 L 26.005742000000012,115.36364899999997 L 29.005741999999998,115.36364899999997 L 29.005741999999998,113.86364899999998 L 32.005742,113.86364899999998 L 32.005742,115.36364899999997 L 37.005742,115.36364899999998 L 37.005742,107.5 L 35.505741999999984,107.50000000000001 L 35.505742,101.5 L 37.005742,101.5 L 37.005742,95.5 L 35.505741999999984,95.49999999999999 L 35.505742,89.5 L 37.005742,89.5 L 37.005742,83.5 L 35.505742,83.5 L 35.505742,77.5 L 37.005742,77.5 L 37.005742,71.5 L 35.505742,71.5 L 35.505742,65.5 L 37.005742,65.5 L 37.005742,59.5 L 35.505742,59.5 L 35.505742,53.50000000000001 L 37.005741999999984,53.49999999999999 L 37.005741999999984,47.499999999999986 L 35.505741999999984,47.5 L 35.505741999999984,41.5 L 37.00574200000001,41.5 L 37.00574200000001,35.5 L 35.505741999999984,35.5 L 35.505742,29.5 L 37.00574200000001,29.50000000000001 L 37.00574200000001,23.50000000000001 L 35.50574200000001,23.50000000000001 L 35.505741999999984,17.5 L 37.00574200000001,17.500000000000007 L 37.005741999999984,10.0 L 32.005742,10.0 L 32.005742,11.500000000000009 L 29.005741999999998,11.499999999999998 L 29.005742000000012,10.0 L 26.005741999999998,10.0 L 26.005742000000012,11.499999999999998 L 23.005741999999998,11.499999999999998 L 23.005741999999998,10.0 L 20.005742000000012,10.00000000000001 L 20.005742000000012,11.499999999999998 L 17.005741999999998,11.499999999999998 L 17.005742000000012,10.0 L 14.005742000000012,10.0 L 14.005741999999998,11.499999999999998 L 10.000000000000014,11.500000000000009 L 10.0,17.5 L 11.5,17.5 L 11.5,23.499999999999996 L 10.0,23.499999999999996 L 10.000000000000014,29.5 L 11.5,29.5 L 11.5,35.5 L 10.000000000000014,35.5 L 10.000000000000014,41.5 L 11.5,41.5 L 11.5,47.5 L 10.000000000000014,47.5 L 10.000000000000014,53.5 L 11.5,53.5 L 11.5,59.5 L 10.000000000000014,59.5 L 10.000000000000014,65.5 L 11.5,65.5 L 11.5,71.5 L 10.000000000000014,71.5 L 10.000000000000014,77.5 L 11.5,77.5 L 11.5,83.5 L 10.000000000000014,83.5 L 10.000000000000014,89.5 L 11.5,89.5 L 11.5,95.5 L 10.000000000000014,95.5 L 10.000000000000014,101.5 L 11.5,101.5 M 17.453261065372985,104.51988133649688 L 18.176803930065418,104.22018006898298 L 18.953261065372985,104.1179575478502 L 19.729718200680537,104.220180068983 L 20.453261065372985,104.51988133649688 L 21.074581408932616,104.99663720429056 L 21.5513372767263,105.6179575478502 L 21.85103854424017,106.34150041254264 L 21.95326106537297,107.1179575478502 L 21.85103854424017,107.89441468315773 L 21.5513372767263,108.6179575478502 L 21.074581408932616,109.23927789140984 L 20.453261065372985,109.7160337592035 L 19.729718200680537,110.0157350267174 L 18.953261065372985,110.1179575478502 L 18.176803930065418,110.0157350267174 L 17.453261065372985,109.7160337592035 L 16.83194072181334,109.23927789140984 L 16.35518485401967,108.6179575478502 L 16.055483586505773,107.89441468315775 L 15.953261065372985,107.1179575478502 L 16.055483586505773,106.34150041254264 L 16.35518485401967,105.6179575478502 L 16.83194072181334,104.99663720429056 L 17.453261065372985,104.51988133649688 "
  />
</svg>
