<?xml version="1.0" standalone="no"?>
<!DOCTYPE svg PUBLIC "-//W3C//DTD SVG 1.1//EN" "http://www.w3.org/Graphics/SVG/1.1/DTD/svg11.dtd">
<svg width="47.00574200000001mm" height="273.297873mm"
 viewBox="0 0 47.00574200000001 273.297873"
 xmlns="http://www.w3.org/2000/svg" version="1.1"
 xmlns:xlink="http://www.w3.org/1999/xlink">
<desc>Output from Flights of Ideas SVG Sketchup Plugin</desc>

  <path id="face0-cut"
 style="fill:none;stroke:#0000FF;stroke-width:1;stroke-miterlimit:4;stroke-dasharray:none;stroke-linejoin:round;stroke-linecap:round"
        d="M 14.005742000000012,11.500000000000014 L 14.005742000000012,10.000000000000014 L 10.000000000000014,10.000000000000014 L 10.000000000000014,14.500000000000014 L 11.500000000000014,14.500000000000014 L 11.500000000000014,17.5 L 10.000000000000014,17.5 L 10.000000000000014,20.5 L 11.500000000000014,20.5 L 11.500000000000014,23.499999999999986 L 10.000000000000014,23.499999999999986 L 10.000000000000014,26.499999999999986 L 11.500000000000014,26.499999999999986 L 11.500000000000014,29.499999999999986 L 10.000000000000014,29.499999999999986 L 10.000000000000014,32.49999999999997 L 11.500000000000014,32.49999999999997 L 11.500000000000014,35.49999999999997 L 10.000000000000014,35.49999999999997 L 10.000000000000014,38.49999999999996 L 11.500000000000014,38.49999999999996 L 11.500000000000014,41.49999999999996 L 10.000000000000014,41.49999999999996 L 10.000000000000014,44.49999999999996 L 11.500000000000014,44.49999999999996 L 11.500000000000014,47.49999999999994 L 10.000000000000014,47.49999999999994 L 10.000000000000014,50.49999999999994 L 11.500000000000014,50.49999999999994 L 11.500000000000014,53.49999999999996 L 10.000000000000014,53.49999999999996 L 10.000000000000014,56.49999999999996 L 11.500000000000014,56.49999999999996 L 11.500000000000014,59.49999999999996 L 10.000000000000014,59.49999999999996 L 10.000000000000014,62.49999999999996 L 11.500000000000014,62.49999999999996 L 11.500000000000014,65.49999999999996 L 10.000000000000014,65.49999999999996 L 10.000000000000014,68.49999999999996 L 11.500000000000014,68.49999999999996 L 11.500000000000014,71.49999999999996 L 10.0,71.49999999999996 L 10.0,73.96711199999997 L 14.005742000000012,73.96711199999997 L 14.005742000000012,72.46711199999997 L 17.005742000000026,72.46711199999997 L 17.005741999999998,73.967112 L 20.005741999999998,73.96711199999997 L 20.005742000000026,72.46711199999997 L 23.005742000000012,72.46711199999997 L 23.005742000000012,73.96711199999997 L 26.005742000000026,73.96711199999997 L 26.005742000000012,72.46711199999997 L 29.005741999999998,72.46711199999997 L 29.005742000000012,73.96711199999994 L 32.00574200000001,73.96711199999997 L 32.00574200000001,72.46711199999997 L 35.50574200000001,72.46711199999997 L 35.50574200000001,68.49999999999996 L 37.00574200000001,68.49999999999996 L 37.00574200000001,65.49999999999996 L 35.50574200000001,65.49999999999996 L 35.50574200000001,62.49999999999993 L 37.00574200000001,62.49999999999996 L 37.00574200000001,59.49999999999996 L 35.50574200000001,59.49999999999996 L 35.50574200000001,56.49999999999996 L 37.00574200000001,56.49999999999996 L 37.00574200000001,53.49999999999996 L 35.50574200000001,53.49999999999993 L 35.50574200000001,50.49999999999994 L 37.00574200000001,50.49999999999994 L 37.00574200000001,47.49999999999994 L 35.50574200000001,47.49999999999994 L 35.50574200000001,44.49999999999996 L 37.00574200000001,44.49999999999996 L 37.00574200000001,41.49999999999996 L 35.50574200000001,41.49999999999996 L 35.50574200000001,38.49999999999996 L 37.00574200000001,38.49999999999996 L 37.00574200000001,35.49999999999997 L 35.50574200000001,35.49999999999997 L 35.50574200000001,32.49999999999997 L 37.00574200000001,32.49999999999997 L 37.00574200000001,29.499999999999986 L 35.50574200000001,29.499999999999986 L 35.50574200000001,26.499999999999986 L 37.00574200000001,26.499999999999986 L 37.00574200000001,23.499999999999986 L 35.50574200000001,23.499999999999986 L 35.50574200000001,20.5 L 37.00574200000001,20.500000000000014 L 37.00574200000001,17.500000000000014 L 35.50574200000001,17.5 L 35.50574200000001,14.500000000000014 L 37.00574200000001,14.500000000000014 L 37.00574200000001,11.500000000000014 L 32.00574200000001,11.500000000000014 L 32.00574200000001,10.0 L 29.005741999999998,10.000000000000014 L 29.005741999999998,11.500000000000014 L 26.005742000000012,11.500000000000014 L 26.005742000000012,10.000000000000028 L 23.005742000000012,10.000000000000014 L 23.005742000000012,11.500000000000014 L 20.005741999999998,11.500000000000014 L 20.005741999999998,10.000000000000014 L 17.005741999999998,10.000000000000014 L 17.005741999999998,11.500000000000014 L 14.005742000000012,11.500000000000014 "
  />
  <path id="face1-cut"
 style="fill:none;stroke:#0000FF;stroke-width:1;stroke-miterlimit:4;stroke-dasharray:none;stroke-linejoin:round;stroke-linecap:round"
        d="M 14.005741999999998,85.46711200000001 L 14.005741999999998,83.96711200000001 L 10.000000000000004,83.96711200000001 L 10.000000000000004,88.46711200000001 L 11.500000000000004,88.46711200000001 L 11.500000000000004,91.46711200000001 L 10.000000000000004,91.46711200000001 L 10.000000000000004,94.46711200000001 L 11.500000000000004,94.46711200000001 L 11.500000000000004,97.46711200000001 L 10.000000000000005,97.46711200000001 L 10.000000000000004,100.46711200000001 L 11.500000000000004,100.46711200000001 L 11.500000000000002,103.46711200000001 L 10.000000000000005,103.46711200000001 L 10.000000000000004,106.46711200000001 L 11.500000000000005,106.46711200000001 L 11.500000000000005,109.46711200000001 L 10.000000000000005,109.46711200000001 L 10.000000000000005,112.46711200000001 L 11.500000000000004,112.46711200000001 L 11.500000000000005,115.46711200000001 L 10.000000000000007,115.46711200000001 L 10.000000000000005,118.467112 L 11.500000000000005,118.46711199999999 L 11.500000000000002,121.46711199999999 L 10.000000000000005,121.46711199999999 L 10.000000000000005,124.46711199999999 L 11.500000000000004,124.46711199999999 L 11.50000000000001,127.46711199999999 L 10.000000000000005,127.46711199999999 L 10.000000000000004,130.467112 L 11.500000000000007,130.467112 L 11.50000000000001,133.467112 L 10.00000000000001,133.46711199999996 L 10.000000000000005,136.46711199999996 L 11.500000000000002,136.46711199999996 L 11.500000000000004,139.467112 L 10.000000000000004,139.467112 L 10.00000000000001,142.46711199999993 L 11.500000000000007,142.46711199999993 L 11.50000000000001,145.20066799999995 L 10.00000000000001,145.20066799999995 L 10.0,147.93422399999997 L 14.005742000000003,147.93422399999997 L 14.005742000000003,146.43422399999997 L 17.005742000000005,146.43422399999997 L 17.005741999999998,147.93422399999997 L 20.005741999999998,147.93422399999997 L 20.005742,146.43422399999997 L 23.00574200000001,146.43422399999997 L 23.005741999999998,147.93422399999997 L 26.005742000000005,147.93422399999997 L 26.005741999999998,146.43422399999997 L 29.005741999999998,146.43422399999997 L 29.005742000000005,147.93422399999997 L 32.005742000000005,147.93422399999997 L 32.005742000000005,146.43422399999997 L 35.50574199999999,146.43422399999997 L 35.505742,144.94456220772446 L 37.005742000000005,144.94456220772446 L 37.005742000000005,141.94456220772446 L 35.505742,141.94456220772446 L 35.50574199999999,138.94456220772446 L 37.005742000000005,138.94456220772446 L 37.005742,135.94456220772446 L 35.505742,135.94456220772446 L 35.505742,132.9445622077245 L 37.005742,132.94456220772446 L 37.005742,129.9445622077245 L 35.505742,129.9445622077245 L 35.505742,126.94456220772446 L 37.005742,126.94456220772449 L 37.005742000000005,123.94456220772449 L 35.505742,123.94456220772449 L 35.505742,120.94456220772449 L 37.005742000000005,120.94456220772449 L 37.005742000000005,117.94456220772449 L 35.505742000000005,117.94456220772449 L 35.505742,114.94456220772452 L 37.005742000000005,114.94456220772449 L 37.005742,111.9445622077245 L 35.505742,111.9445622077245 L 35.505742,108.9445622077245 L 37.005742,108.9445622077245 L 37.005742000000005,105.94456220772452 L 35.505742,105.9445622077245 L 35.505742,102.94456220772449 L 37.005742000000005,102.94456220772449 L 37.005742,99.9445622077245 L 35.505742,99.9445622077245 L 35.505742,96.9445622077245 L 37.005742,96.94456220772452 L 37.005742,93.94456220772449 L 35.505742,93.94456220772449 L 35.505742,90.9445622077245 L 37.005742000000005,90.94456220772449 L 37.005742000000005,88.02669470898721 L 35.505742,88.02669470898724 L 35.505742,85.46711200000001 L 32.005742,85.46711200000001 L 32.005742,83.967112 L 29.005741999999998,83.96711200000001 L 29.005741999999998,85.46711200000001 L 26.005741999999998,85.46711200000001 L 26.005741999999998,83.96711200000001 L 23.005741999999998,83.96711200000001 L 23.005741999999998,85.46711200000001 L 20.005741999999998,85.46711200000001 L 20.005741999999998,83.96711200000001 L 17.005741999999998,83.96711200000001 L 17.005741999999998,85.46711200000001 L 14.005741999999998,85.46711200000001 "
  />
  <path id="face2-cut"
 style="fill:none;stroke:#0000FF;stroke-width:1;stroke-miterlimit:4;stroke-dasharray:none;stroke-linejoin:round;stroke-linecap:round"
        d="M 11.5,245.8866470794271 L 11.5,251.88664707942712 L 10.0,251.88664707942712 L 10.0,257.8866470794271 L 11.5,257.8866470794271 L 11.5,261.797873 L 14.005742000000001,261.797873 L 14.005741999999998,263.297873 L 17.005741999999998,263.297873 L 17.005742,261.797873 L 20.005741999999998,261.797873 L 20.005741999999998,263.297873 L 23.005741999999998,263.297873 L 23.005742,261.797873 L 26.005741999999998,261.797873 L 26.005741999999998,263.297873 L 29.005741999999994,263.297873 L 29.005741999999994,261.797873 L 32.005742,261.797873 L 32.005742,263.297873 L 35.50574199999999,263.297873 L 35.505742,261.434224 L 37.005742,261.434224 L 37.005742,255.434224 L 35.505742,255.43422399999997 L 35.50574199999999,249.434224 L 37.005742,249.434224 L 37.005742,243.434224 L 35.505742,243.434224 L 35.505742,237.434224 L 37.005742,237.43422399999997 L 37.005742,231.43422399999997 L 35.50574199999999,231.434224 L 35.505742,225.43422399999997 L 37.005742,225.43422399999997 L 37.005742,219.434224 L 35.505742,219.434224 L 35.505742,213.43422399999997 L 37.005742,213.434224 L 37.005742,207.434224 L 35.505742,207.434224 L 35.505742,201.434224 L 37.005742,201.43422399999997 L 37.00574199999999,195.434224 L 35.50574199999999,195.434224 L 35.50574199999999,189.434224 L 37.005742,189.434224 L 37.00574199999999,183.434224 L 35.50574199999999,183.434224 L 35.505741999999984,177.434224 L 37.00574199999999,177.434224 L 37.005742,171.434224 L 35.505742,171.434224 L 35.505742,165.434224 L 37.005742,165.434224 L 37.005742,159.434224 L 37.005742000000005,157.93422399999997 L 32.00574200000001,157.93422399999997 L 32.005742,159.43422399999997 L 29.00574200000001,159.43422399999997 L 29.005742000000005,157.93422399999997 L 26.005741999999998,157.93422399999997 L 26.005742000000012,159.434224 L 23.005742000000012,159.43422399999997 L 23.005742000000005,157.93422399999997 L 20.00574200000001,157.934224 L 20.005741999999998,159.43422399999997 L 17.005742000000005,159.43422399999997 L 17.00574200000001,157.93422399999997 L 14.005742000000005,157.93422399999997 L 14.005742000000009,159.43422399999997 L 10.000000000000014,159.43422399999997 L 10.000000000000014,165.43422399999997 L 11.500000000000007,165.434224 L 11.500000000000007,171.434224 L 10.000000000000014,171.434224 L 10.000000000000014,178.80784583516973 L 11.500000000000004,178.80784583516973 L 19.047782,178.80784583516973 L 19.047782000000005,191.8866470794271 L 11.500000000000004,191.8866470794271 L 10.00000000000001,191.8866470794271 L 10.0,197.8866470794271 L 11.500000000000004,197.8866470794271 L 11.500000000000004,203.8866470794271 L 10.0,203.8866470794271 L 10.000000000000004,209.88664707942712 L 11.500000000000004,209.8866470794271 L 11.500000000000004,215.8866470794271 L 10.000000000000004,215.8866470794271 L 10.000000000000004,221.8866470794271 L 11.500000000000004,221.8866470794271 L 11.5,227.8866470794271 L 10.0,227.8866470794271 L 10.0,233.8866470794271 L 11.5,233.8866470794271 L 11.5,239.8866470794271 L 10.0,239.8866470794271 L 10.0,245.8866470794271 L 11.5,245.8866470794271 "
  />
</svg>
